<svg width="102" height="32" viewBox="0 0 102 32" fill="none" xmlns="http://www.w3.org/2000/svg">
<path d="M13.872 12.432C13.872 13.328 13.656 14.168 13.224 14.952C12.808 15.736 12.144 16.368 11.232 16.848C10.336 17.328 9.2 17.568 7.824 17.568H5.016V24H1.656V7.248H7.824C9.12 7.248 10.224 7.472 11.136 7.92C12.048 8.368 12.728 8.984 13.176 9.768C13.64 10.552 13.872 11.44 13.872 12.432ZM7.68 14.856C8.608 14.856 9.296 14.648 9.744 14.232C10.192 13.8 10.416 13.2 10.416 12.432C10.416 10.8 9.504 9.984 7.68 9.984H5.016V14.856H7.68ZM22.1616 24.216C20.8816 24.216 19.7296 23.936 18.7056 23.376C17.6816 22.8 16.8736 21.992 16.2816 20.952C15.7056 19.912 15.4176 18.712 15.4176 17.352C15.4176 15.992 15.7136 14.792 16.3056 13.752C16.9136 12.712 17.7376 11.912 18.7776 11.352C19.8176 10.776 20.9776 10.488 22.2576 10.488C23.5376 10.488 24.6976 10.776 25.7376 11.352C26.7776 11.912 27.5936 12.712 28.1856 13.752C28.7936 14.792 29.0976 15.992 29.0976 17.352C29.0976 18.712 28.7856 19.912 28.1616 20.952C27.5536 21.992 26.7216 22.8 25.6656 23.376C24.6256 23.936 23.4576 24.216 22.1616 24.216ZM22.1616 21.288C22.7696 21.288 23.3376 21.144 23.8656 20.856C24.4096 20.552 24.8416 20.104 25.1616 19.512C25.4816 18.92 25.6416 18.2 25.6416 17.352C25.6416 16.088 25.3056 15.12 24.6336 14.448C23.9776 13.76 23.1696 13.416 22.2096 13.416C21.2496 13.416 20.4416 13.76 19.7856 14.448C19.1456 15.12 18.8256 16.088 18.8256 17.352C18.8256 18.616 19.1376 19.592 19.7616 20.28C20.4016 20.952 21.2016 21.288 22.1616 21.288ZM34.9223 12.768C35.3543 12.064 35.9143 11.512 36.6023 11.112C37.3063 10.712 38.1063 10.512 39.0023 10.512V14.04H38.1143C37.0583 14.04 36.2583 14.288 35.7143 14.784C35.1863 15.28 34.9223 16.144 34.9223 17.376V24H31.5623V10.704H34.9223V12.768ZM45.1774 13.464V19.896C45.1774 20.344 45.2814 20.672 45.4894 20.88C45.7134 21.072 46.0814 21.168 46.5934 21.168H48.1534V24H46.0414C43.2094 24 41.7934 22.624 41.7934 19.872V13.464H40.2094V10.704H41.7934V7.416H45.1774V10.704H48.1534V13.464H45.1774ZM56.6661 13.464H54.3381V24H50.9301V13.464H49.4181V10.704H50.9301V10.032C50.9301 8.4 51.3941 7.2 52.3221 6.432C53.2501 5.664 54.6501 5.304 56.5221 5.352V8.184C55.7061 8.168 55.1381 8.304 54.8181 8.592C54.4981 8.88 54.3381 9.4 54.3381 10.152V10.704H56.6661V13.464ZM64.7475 24.216C63.4675 24.216 62.3155 23.936 61.2915 23.376C60.2675 22.8 59.4595 21.992 58.8675 20.952C58.2915 19.912 58.0035 18.712 58.0035 17.352C58.0035 15.992 58.2995 14.792 58.8915 13.752C59.4995 12.712 60.3235 11.912 61.3635 11.352C62.4035 10.776 63.5635 10.488 64.8435 10.488C66.1235 10.488 67.2835 10.776 68.3235 11.352C69.3635 11.912 70.1795 12.712 70.7715 13.752C71.3795 14.792 71.6835 15.992 71.6835 17.352C71.6835 18.712 71.3715 19.912 70.7475 20.952C70.1395 21.992 69.3075 22.8 68.2515 23.376C67.2115 23.936 66.0435 24.216 64.7475 24.216ZM64.7475 21.288C65.3555 21.288 65.9235 21.144 66.4515 20.856C66.9955 20.552 67.4275 20.104 67.7475 19.512C68.0675 18.92 68.2275 18.2 68.2275 17.352C68.2275 16.088 67.8915 15.12 67.2195 14.448C66.5635 13.76 65.7555 13.416 64.7955 13.416C63.8355 13.416 63.0275 13.76 62.3715 14.448C61.7315 15.12 61.4115 16.088 61.4115 17.352C61.4115 18.616 61.7235 19.592 62.3475 20.28C62.9875 20.952 63.7875 21.288 64.7475 21.288ZM77.5082 6.24V24H74.1482V6.24H77.5082ZM82.5319 9.12C81.9399 9.12 81.4439 8.936 81.0439 8.568C80.6599 8.184 80.4679 7.712 80.4679 7.152C80.4679 6.592 80.6599 6.128 81.0439 5.76C81.4439 5.376 81.9399 5.184 82.5319 5.184C83.1239 5.184 83.6119 5.376 83.9959 5.76C84.3959 6.128 84.5959 6.592 84.5959 7.152C84.5959 7.712 84.3959 8.184 83.9959 8.568C83.6119 8.936 83.1239 9.12 82.5319 9.12ZM84.1879 10.704V24H80.8279V10.704H84.1879ZM93.4116 24.216C92.1316 24.216 90.9796 23.936 89.9556 23.376C88.9316 22.8 88.1236 21.992 87.5316 20.952C86.9556 19.912 86.6676 18.712 86.6676 17.352C86.6676 15.992 86.9636 14.792 87.5556 13.752C88.1636 12.712 88.9876 11.912 90.0276 11.352C91.0676 10.776 92.2276 10.488 93.5076 10.488C94.7876 10.488 95.9476 10.776 96.9876 11.352C98.0276 11.912 98.8436 12.712 99.4356 13.752C100.044 14.792 100.348 15.992 100.348 17.352C100.348 18.712 100.036 19.912 99.4116 20.952C98.8036 21.992 97.9716 22.8 96.9156 23.376C95.8756 23.936 94.7076 24.216 93.4116 24.216ZM93.4116 21.288C94.0196 21.288 94.5876 21.144 95.1156 20.856C95.6596 20.552 96.0916 20.104 96.4116 19.512C96.7316 18.92 96.8916 18.2 96.8916 17.352C96.8916 16.088 96.5556 15.12 95.8836 14.448C95.2276 13.76 94.4196 13.416 93.4596 13.416C92.4996 13.416 91.6916 13.76 91.0356 14.448C90.3956 15.12 90.0756 16.088 90.0756 17.352C90.0756 18.616 90.3876 19.592 91.0116 20.28C91.6516 20.952 92.4516 21.288 93.4116 21.288Z" fill="white"/>
</svg>
