<svg width="34" height="34" viewBox="0 0 34 34" fill="none" xmlns="http://www.w3.org/2000/svg">
<path d="M28.7015 6.69637V26.3742C28.7015 26.8241 28.5227 27.2556 28.2046 27.5737C27.8865 27.8919 27.455 28.0706 27.0051 28.0706H7.32723C6.87732 28.0706 6.44584 27.8919 6.12771 27.5737C5.80958 27.2556 5.63086 26.8241 5.63086 26.3742V6.69637C5.63086 6.24646 5.80958 5.81499 6.12771 5.49685C6.44584 5.17872 6.87732 5 7.32723 5H27.0051C27.455 5 27.8865 5.17872 28.2046 5.49685C28.5227 5.81499 28.7015 6.24646 28.7015 6.69637ZM12.4163 13.8211H9.02359V24.6779H12.4163V13.8211ZM12.7217 10.0891C12.7235 9.83247 12.6747 9.578 12.5781 9.34022C12.4816 9.10244 12.3391 8.886 12.1589 8.70327C11.9787 8.52055 11.7643 8.37511 11.5279 8.27525C11.2914 8.1754 11.0377 8.12309 10.781 8.12132H10.72C10.1981 8.12132 9.69756 8.32864 9.32853 8.69767C8.9595 9.0667 8.75218 9.56721 8.75218 10.0891C8.75218 10.611 8.9595 11.1115 9.32853 11.4805C9.69756 11.8496 10.1981 12.0569 10.72 12.0569C10.9766 12.0632 11.232 12.0189 11.4715 11.9265C11.711 11.834 11.93 11.6953 12.1159 11.5183C12.3018 11.3412 12.4509 11.1292 12.5549 10.8945C12.6588 10.6598 12.7155 10.4068 12.7217 10.1502V10.0891ZM25.3087 18.0824C25.3087 14.8186 23.2324 13.5497 21.1696 13.5497C20.4942 13.5159 19.8217 13.6597 19.2193 13.9669C18.6168 14.2741 18.1054 14.7338 17.7361 15.3003H17.6411V13.8211H14.452V24.6779H17.8447V18.9034C17.7957 18.312 17.982 17.7252 18.3631 17.2703C18.7443 16.8155 19.2895 16.5294 19.8803 16.4742H20.0093C21.0882 16.4742 21.8888 17.1528 21.8888 18.8627V24.6779H25.2816L25.3087 18.0824Z" fill="white"/>
</svg>
